Coordinates
version=1
nRows=26
nColumns=24
inDegrees=yes

Units are S.I. units (second, meters, Newtons, ...)
Angles are in degrees.

endheader
time	pelvis_tilt	pelvis_list	pelvis_rotation	pelvis_tx	pelvis_ty	pelvis_tz	hip_flexion_r	hip_adduction_r	hip_rotation_r	knee_angle_r	ankle_angle_r	subtalar_angle_r	mtp_angle_r	hip_flexion_l	hip_adduction_l	hip_rotation_l	knee_angle_l	ankle_angle_l	subtalar_angle_l	mtp_angle_l	lumbar_extension	lumbar_bending	lumbar_rotation
      5.61000000	      8.24376639	      1.78512331	     -8.79294906	     -1.87260007	      0.75160451	      0.27446443	     12.12397342	     -3.48513484	      1.37048029	    -70.54210998	    -15.36863159	    -12.12223543	      0.00000000	     -3.36360358	      9.29439823	     -3.56101357	     -4.87621940	      6.91992475	    -21.61935977	      0.00000000	    -25.30665643	     -4.18562170	     -0.72991888
      5.62000000	      8.17114834	      1.30891330	     -7.97893256	     -1.86190917	      0.75290178	      0.27414040	     13.42325499	     -2.87876370	      0.84485872	    -70.12955192	    -11.62431261	    -12.61200650	      0.00000000	     -4.73973726	      8.82712801	     -2.99834061	     -4.12313062	      7.61397567	    -20.89819182	      0.00000000	    -25.30112055	     -3.33093836	     -1.54485821
      5.63000000	      8.08937668	      0.83415135	     -7.17473305	     -1.85132781	      0.75394097	      0.27379939	     14.67287437	     -2.30891824	      0.32208340	    -69.38296229	     -7.90306287	    -13.08169292	      0.00000000	     -6.05094149	      8.33662279	     -2.41658730	     -3.41742567	      8.26600889	    -20.27920025	      0.00000000	    -25.31371165	     -2.48213678	     -2.31662581
      5.64000000	      7.99904285	      0.39239976	     -6.40609095	     -1.84086361	      0.75469809	      0.27347276	     15.88841463	     -1.80844373	     -0.16697820	    -68.32785399	     -4.49270560	    -13.61179028	      0.00000000	     -7.27998317	      7.85985019	     -1.84533431	     -2.78355578	      8.89476642	    -19.76530311	      0.00000000	    -25.33918487	     -1.68426065	     -3.02256194
      5.65000000	      7.90882816	      0.00061338	     -5.68735992	     -1.83051203	      0.75518335	      0.27320442	     17.04958716	     -1.38468071	     -0.59620852	    -66.96233312	     -1.62125486	    -14.29599787	      0.00000000	     -8.43577507	      7.41717734	     -1.28438511	     -2.22659782	      9.49182875	    -19.35193377	      0.00000000	    -25.38736561	     -0.96700651	     -3.65494076
      5.66000000	      7.77716530	     -0.32498650	     -5.00965681	     -1.82025940	      0.75535141	      0.27300138	     18.18413211	     -1.04739223	     -0.96778386	    -65.28407856	      0.51765475	    -15.29611899	      0.00000000	     -9.46271039	      7.02061641	     -0.70134970	     -1.77473076	     10.09897935	    -19.04354627	      0.00000000	    -25.40334265	     -0.33975109	     -4.21542428
      5.67000000	      7.71292868	     -0.56996514	     -4.39099936	     -1.81007124	      0.75532460	      0.27290331	     19.14471523	     -0.82906465	     -1.28583613	    -63.28022786	      2.14509566	    -16.34697004	      0.00000000	    -10.49665197	      6.69857824	     -0.15185001	     -1.40310620	     10.68177992	    -18.77328933	      0.00000000	    -25.51737746	      0.15692915	     -4.73429988
      5.68000000	      7.68662606	     -0.75176109	     -3.79627242	     -1.79991062	      0.75509296	      0.27289390	     19.92296929	     -0.69613457	     -1.56940585	    -60.92254935	      3.16115962	    -17.61791917	      0.00000000	    -11.50419066	      6.42304659	      0.40647638	     -1.13015035	     11.30046656	    -18.54745753	      0.00000000	    -25.68640444	      0.55906778	     -5.21571470
      5.69000000	      7.71509704	     -0.89626153	     -3.27623988	     -1.78975610	      0.75470759	      0.27305707	     20.46213074	     -0.54453001	     -1.68809166	    -58.16260977	      3.43434494	    -19.42494490	      0.00000000	    -12.50710188	      6.17720339	      0.88342067	     -0.95839936	     11.86549370	    -18.37226746	      0.00000000	    -25.92654881	      0.87427424	     -5.60186802
      5.70000000	      7.69828352	     -0.93455171	     -2.75257619	     -1.77956630	      0.75402077	      0.27326434	     20.88863928	     -0.53682102	     -1.80914756	    -55.06283646	      3.39275761	    -21.20688505	      0.00000000	    -13.38801156	      6.02017298	      1.45037538	     -0.91322374	     12.51380946	    -18.23429090	      0.00000000	    -26.10186102	      1.06389867	     -6.00118991
      5.71000000	      7.70001016	     -0.91087438	     -2.24419857	     -1.76930745	      0.75313590	      0.27352802	     21.09477151	     -0.59559675	     -1.87725277	    -51.57513445	      3.09175273	    -22.96329088	      0.00000000	    -14.23654473	      5.91555554	      2.03294072	     -0.96775174	     13.18151514	    -18.14816840	      0.00000000	    -26.28447087	      1.17580419	     -6.41037006
      5.72000000	      7.68057668	     -0.81208293	     -1.75447087	     -1.75896388	      0.75201317	      0.27386149	     21.11992172	     -0.71765770	     -1.86241872	    -47.70148178	      2.61614272	    -24.60183258	      0.00000000	    -15.01639411	      5.87785034	      2.66435530	     -1.11768845	     13.87280079	    -18.11868327	      0.00000000	    -26.41993006	      1.18687636	     -6.83741891
      5.73000000	      7.66550967	     -0.65167271	     -1.27274577	     -1.74849506	      0.75069180	      0.27422100	     20.92136368	     -0.89980266	     -1.77975109	    -43.43083629	      2.12923880	    -25.88567481	      0.00000000	    -15.76785458	      5.89500587	      3.32858802	     -1.35128936	     14.56554965	    -18.13707355	      0.00000000	    -26.52503556	      1.12738073	     -7.31859597
      5.74000000	      7.62396885	     -0.41449290	     -0.81144311	     -1.73788030	      0.74914050	      0.27462516	     20.53646626	     -1.14582066	     -1.59504809	    -38.77669307	      1.65077108	    -26.75959200	      0.00000000	    -16.46774560	      5.98538323	      4.02202308	     -1.65608120	     15.25090045	    -18.19932560	      0.00000000	    -26.55908045	      0.97379379	     -7.84770525
      5.75000000	      7.54934766	     -0.09283177	     -0.37076520	     -1.72708644	      0.74734355	      0.27505586	     19.98180107	     -1.46814939	     -1.29817145	    -33.77065452	      1.24344291	    -27.18338726	      0.00000000	    -17.11224886	      6.15901051	      4.75896796	     -2.03962813	     15.91399655	    -18.28628344	      0.00000000	    -26.50973437	      0.71839926	     -8.39438453
      5.76000000	      7.39690392	      0.33718438	      0.07094918	     -1.71606296	      0.74524798	      0.27547606	     19.35293503	     -1.93088187	     -1.00504228	    -28.51595347	      1.03737683	    -26.80094872	      0.00000000	    -17.67722750	      6.43445384	      5.54055083	     -2.46996765	     16.63366180	    -18.29551424	      0.00000000	    -26.31170381	      0.34533434	     -9.07493562
      5.77000000	      7.32708074	      0.80101230	      0.46163541	     -1.70475773	      0.74306265	      0.27596974	     18.43339732	     -2.38885218	     -0.49767088	    -22.96683344	      0.75673438	    -26.08897438	      0.00000000	    -18.39240758	      6.73909468	      6.21175330	     -2.84152292	     17.20560648	    -18.35572915	      0.00000000	    -26.15758080	     -0.08233703	     -9.80523313
      5.78000000	      7.17164628	      1.38050262	      0.86603434	     -1.69319447	      0.74058932	      0.27643969	     17.50824210	     -2.99722223	      0.01253739	    -17.33122725	      0.55145937	    -24.89342460	      0.00000000	    -19.02288392	      7.14725137	      6.99187703	     -3.27566539	     17.79711176	    -18.33353269	      0.00000000	    -25.85437051	     -0.63353786	    -10.60541689
      5.79000000	      7.07794457	      1.98368719	      1.26622959	     -1.68133963	      0.73802088	      0.27690170	     16.48774961	     -3.67404993	      0.20716858	    -11.79223865	      0.84507308	    -22.59578747	      0.00000000	    -19.78209398	      7.55632765	      7.75841419	     -3.65780648	     18.16866641	    -18.46686897	      0.00000000	    -25.59227806	     -1.20861298	    -11.45232572
      5.80000000	      6.88076528	      2.71415411	      1.67320048	     -1.66924091	      0.73522061	      0.27734397	     15.73442818	     -4.50420711	     -0.28010081	     -6.74999001	      1.77744100	    -18.96451352	      0.00000000	    -20.50256087	      8.07111217	      8.68896212	     -3.98851582	     18.52553914	    -18.50682096	      0.00000000	    -25.17336533	     -1.92905864	    -12.40606448
      5.81000000	      6.68790460	      3.36810860	      2.10824462	     -1.65694745	      0.73243084	      0.27782763	     15.06885795	     -5.18083588	     -1.24416572	     -2.21079148	      2.92047855	    -14.75550564	      0.00000000	    -21.21189534	      8.46811311	      9.52453538	     -4.39104176	     18.86283128	    -18.42069470	      0.00000000	    -24.75820603	     -2.57061476	    -13.33898457
      5.82000000	      6.50844040	      3.92912201	      2.53192554	     -1.64451035	      0.72973275	      0.27842075	     14.48881036	     -5.64756520	     -2.25856353	      1.71533367	      4.10219710	    -10.59971159	      0.00000000	    -21.92865447	      8.73775710	     10.26579432	     -4.82889999	     19.14516307	    -18.19842292	      0.00000000	    -24.36981704	     -3.13261362	    -14.20021430
      5.83000000	      6.36075813	      4.37951435	      2.91867739	     -1.63197181	      0.72718726	      0.27913559	     13.94127162	     -5.92032436	     -2.79265880	      4.98129397	      5.04518837	     -7.34812093	      0.00000000	    -22.65479767	      8.87351200	     10.88929943	     -5.31325488	     19.35901146	    -17.84456172	      0.00000000	    -24.03809193	     -3.59756179	    -14.95183237
      5.84000000	      6.28121618	      4.68691327	      3.25586253	     -1.61936374	      0.72486813	      0.27994604	     13.38181331	     -6.03063925	     -2.64406491	      7.50805368	      5.67980254	     -5.40873599	      0.00000000	    -23.38542279	      8.85957064	     11.40294599	     -5.90799661	     19.55056412	    -17.43652159	      0.00000000	    -23.81237176	     -3.91802311	    -15.55604879
      5.85000000	      6.14709133	      4.89650654	      3.50269022	     -1.60667938	      0.72269119	      0.28086614	     13.04096233	     -6.05913513	     -1.92732114	      9.09480790	      6.18342620	     -4.59449521	      0.00000000	    -24.03343331	      8.77165807	     11.88606579	     -6.52443339	     19.53678527	    -17.08336943	      0.00000000	    -23.53249606	     -4.16402963	    -16.03470100
      5.86000000	      6.17346206	      4.84402195	      3.64240570	     -1.59393764	      0.72096703	      0.28192928	     12.76526854	     -5.77373292	     -1.27615943	      9.62917452	      6.62691143	     -4.09814443	      0.00000000	    -24.75576701	      8.44708210	     12.15183718	     -7.25739793	     19.40803859	    -16.70109022	      0.00000000	    -23.46236181	     -4.12359035	    -16.28880772
